<svg viewBox="0 0 122.88 122.88" xmlns="http://www.w3.org/2000/svg" data-name="Layer 1">

 <title>like-button</title>
 <g>
  <title>Layer 1</title>
  <path id="svg_1" fill-rule="evenodd" fill="#1a202c" d="m61.44,0a61.44,61.44 0 1 1 -61.44,61.44a61.44,61.44 0 0 1 61.44,-61.44z" class="cls-1"/>
  <path id="svg_2" fill="#fff" fill-rule="evenodd" d="m32.5,53.39l10.56,0a2.18,2.18 0 0 1 2.17,2.18l0,28.95a2.19,2.19 0 0 1 -2.17,2.18l-10.56,0a2.19,2.19 0 0 1 -2.18,-2.18l0,-28.95a2.19,2.19 0 0 1 2.18,-2.18zm27.7,-21.71c1.14,-5.82 10.66,-0.46 11.29,8.91a40.41,40.41 0 0 1 -0.81,9.93l13.61,0c5.65,0.23 10.59,4.28 7.1,10.93c0.8,2.9 0.92,6.3 -1.24,7.65c0.27,4.57 -1,7.41 -3.37,9.65a11.42,11.42 0 0 1 -1.78,5.88c-1.83,2.58 -3.31,2 -6.19,2l-23,0c-3.64,0 -5.62,-1 -8,-4l0,-25.63c6.91,-1.83 10.55,-11.2 12.39,-17.35l0,-8l0,0.03z" class="cls-2"/>
 </g>
</svg>