<svg viewBox="0 0 92.25 122.88000000000001" xmlns="http://www.w3.org/2000/svg" data-name="Layer 4">

    <title>pin-location</title>
    <g>
        <title>Layer 4</title>
        <path id="svg_4" fill-rule="evenodd"
              d="m49.1,122.34a2.75,2.75 0 0 1 -3.12,0.1a109.7,109.7 0 0 1 -26.98,-24.09c-9.85,-12.35 -16,-26.02 -18.17,-39.19c-2.16,-13.37 -0.14,-26.22 6.51,-36.67a45.14,45.14 0 0 1 10.05,-11.14c9.38,-7.48 20.1,-11.43 30.77,-11.35c10.29,0.08 20.43,3.92 29.2,11.91a43,43 0 0 1 7.79,9.49c7.15,11.77 8.69,26.8 5.55,42a92.52,92.52 0 0 1 -41.6,58.92l0,0.02zm-3,-98.58a23,23 0 1 1 -22.94,23a23,23 0 0 1 22.97,-23l-0.03,0z"
              class="cls-4"/>
    </g>
</svg>